<svg xmlns="http://www.w3.org/2000/svg" viewBox="0 0 153.71 137.46">
  <defs>
    <style>
      .cls-1 {
        fill: #f9f8f7;
      }

      .cls-2 {
        fill: #3a4d57;
      }

      .cls-3 {
        fill: #bcbec0;
      }
    </style>
  </defs>
  <title>Asset 1</title>
  <g id="Layer_2" data-name="Layer 2">
    <g id="OBJECTS">
      <g>
        <path class="cls-1" d="M153.71,58V47.65H63.59l1.68-.36,19.47-4.2,4.12-.89,17.53-3.79,4.6-1,40.69-8.78L149,16.24l-1.31-6L145.5,0l-7.33,1.58-22,4.75h0l-9.05,2h0L93.82,11.15h0L67.36,16.86,49.83,20.65,37.68,23.27h0L24.61,26.09l-9.31,2h0L0,31.4,4.86,53.92v83.54H153.71V81.86h0V58ZM13.45,40.08,21,38.46,27,37.15l22-4.74,3.21-.7,17.53-3.78,7.69-1.66,18.35-4,26-5.61,6-1.31,9-1.94,1.12,5.18.29,1.33L108.6,26.35l-4.6,1L86.47,31.13,82.35,32l-22.72,4.9h0l-6.06,1.31-6.42,1.39h0l-32.29,7Zm128.94,86.06H16.18V59H142.39Z"/>
        <g>
          <rect class="cls-2" x="10.52" y="71.29" width="137.53" height="60.51"/>
          <g>
            <rect class="cls-2" x="7.08" y="21.03" width="137.53" height="17.98" transform="translate(-4.63 16.67) rotate(-12.18)"/>
            <g>
              <polygon class="cls-1" points="51.02 26.18 43.34 27.84 29.56 49.2 37.24 47.55 51.02 26.18"/>
              <polygon class="cls-1" points="18.13 33.28 9.19 47.14 10.52 53.31 12.03 52.99 25.81 31.62 18.13 33.28"/>
              <polygon class="cls-1" points="76.23 20.74 68.55 22.4 54.77 43.76 62.45 42.1 76.23 20.74"/>
              <polygon class="cls-1" points="101.44 15.3 93.76 16.96 79.98 38.32 87.66 36.66 101.44 15.3"/>
              <polygon class="cls-1" points="138.09 25.78 143.47 17.43 141.81 9.75 130.41 27.44 138.09 25.78"/>
              <polygon class="cls-1" points="126.66 9.86 118.98 11.52 105.19 32.88 112.88 31.22 126.66 9.86"/>
            </g>
          </g>
          <g>
            <rect class="cls-2" x="10.52" y="53.31" width="137.53" height="17.98"/>
            <g>
              <polygon class="cls-1" points="55.83 71.29 47.97 71.29 30 53.31 37.85 53.31 55.83 71.29"/>
              <polygon class="cls-1" points="22.18 71.29 10.52 59.63 10.52 53.31 12.06 53.31 30.04 71.29 22.18 71.29"/>
              <polygon class="cls-1" points="81.62 71.29 73.77 71.29 55.79 53.31 63.65 53.31 81.62 71.29"/>
              <polygon class="cls-1" points="107.42 71.29 99.56 71.29 81.58 53.31 89.44 53.31 107.42 71.29"/>
              <polygon class="cls-1" points="141.02 53.31 148.05 60.34 148.05 68.19 133.17 53.31 141.02 53.31"/>
              <polygon class="cls-1" points="133.21 71.29 125.35 71.29 107.37 53.31 115.23 53.31 133.21 71.29"/>
            </g>
          </g>
          <g>
            <rect class="cls-3" x="18.32" y="75.46" width="121.92" height="2.9"/>
            <rect class="cls-3" x="18.32" y="88.08" width="121.92" height="2.9"/>
            <rect class="cls-3" x="18.32" y="121.04" width="121.92" height="2.9"/>
            <rect class="cls-3" x="78.53" y="89.53" width="2.9" height="32.97"/>
            <rect class="cls-3" x="103.74" y="89.53" width="2.9" height="32.97"/>
            <rect class="cls-3" x="53.32" y="89.53" width="2.9" height="32.97"/>
          </g>
        </g>
      </g>
    </g>
  </g>
</svg>
